<?xml version="1.0" encoding="UTF-8" standalone="no"?>
<svg
   xmlns:dc="http://purl.org/dc/elements/1.1/"
   xmlns:cc="http://creativecommons.org/ns#"
   xmlns:rdf="http://www.w3.org/1999/02/22-rdf-syntax-ns#"
   xmlns:svg="http://www.w3.org/2000/svg"
   xmlns="http://www.w3.org/2000/svg"
   xmlns:sodipodi="http://sodipodi.sourceforge.net/DTD/sodipodi-0.dtd"
   xmlns:inkscape="http://www.inkscape.org/namespaces/inkscape"
   width="323"
   height="195"
   viewBox="0 0 323 195"
   fill="none"
   version="1.1"
   id="svg105"
   sodipodi:docname="byOO_1.svg"
   inkscape:version="1.0.2-2 (e86c870879, 2021-01-15)">
  <metadata
     id="metadata109">
    <rdf:RDF>
      <cc:Work
         rdf:about="">
        <dc:format>image/svg+xml</dc:format>
        <dc:type
           rdf:resource="http://purl.org/dc/dcmitype/StillImage" />
      </cc:Work>
    </rdf:RDF>
  </metadata>
  <sodipodi:namedview
     pagecolor="#ffffff"
     bordercolor="#666666"
     borderopacity="1"
     objecttolerance="10"
     gridtolerance="10"
     guidetolerance="10"
     inkscape:pageopacity="0"
     inkscape:pageshadow="2"
     inkscape:window-width="1920"
     inkscape:window-height="1017"
     id="namedview107"
     showgrid="false"
     inkscape:zoom="3.1486068"
     inkscape:cx="161.5"
     inkscape:cy="97.5"
     inkscape:window-x="-8"
     inkscape:window-y="-8"
     inkscape:window-maximized="1"
     inkscape:current-layer="svg105" />
  <g
     id="byOO"
     filter="url(#filter0_d)"
     transform="matrix(0.92615175,0,0,0.92328122,12.274083,7.6281554)"
     style="fill:#000000">
    <path
       d="m 91.02,121.3 c -3.12,0 -5.94,-0.72 -8.46,-2.16 -2.48,-1.44 -4.46,-3.4 -5.94,-5.88 -1.44,-2.52 -2.18,-5.34 -2.22,-8.46 V 76.48 c 0,-0.72 0.2,-1.28 0.6,-1.68 0.44,-0.44 1.02,-0.66 1.74,-0.66 0.68,0 1.22,0.22 1.62,0.66 0.44,0.4 0.66,0.96 0.66,1.68 v 17.64 c 1.32,-1.88 3.06,-3.38 5.22,-4.5 2.2,-1.16 4.64,-1.74 7.32,-1.74 3.08,0 5.84,0.74 8.28,2.22 2.44,1.44 4.36,3.42 5.76,5.94 1.44,2.52 2.16,5.36 2.16,8.52 0,3.2 -0.74,6.06 -2.22,8.58 -1.44,2.52 -3.42,4.52 -5.94,6 -2.52,1.44 -5.38,2.16 -8.58,2.16 z m 0,-4.2 c 2.32,0 4.4,-0.54 6.24,-1.62 1.84,-1.12 3.28,-2.62 4.32,-4.5 1.08,-1.88 1.62,-4.02 1.62,-6.42 0,-2.36 -0.54,-4.48 -1.62,-6.36 -1.04,-1.92 -2.48,-3.42 -4.32,-4.5 -1.84,-1.08 -3.92,-1.62 -6.24,-1.62 -2.28,0 -4.34,0.54 -6.18,1.62 -1.84,1.08 -3.28,2.58 -4.32,4.5 -1.04,1.88 -1.56,4 -1.56,6.36 0,2.4 0.52,4.54 1.56,6.42 1.04,1.88 2.48,3.38 4.32,4.5 1.84,1.08 3.9,1.62 6.18,1.62 z m 29.625,18.18 c -0.32,0 -0.68,-0.08 -1.08,-0.24 -1.36,-0.6 -1.74,-1.56 -1.14,-2.88 l 6,-13.14 -0.06,-0.06 -13.38,-27.72 c -0.28,-0.6 -0.32,-1.16 -0.12,-1.68 0.2,-0.52 0.6,-0.92 1.2,-1.2 1.32,-0.6 2.28,-0.26 2.88,1.02 l 11.7,24.66 11.16,-24.6 c 0.6,-1.28 1.56,-1.64 2.88,-1.08 1.36,0.56 1.74,1.5 1.14,2.82 l -19.44,42.72 c -0.4,0.92 -0.98,1.38 -1.74,1.38 z m 48.906,-13.68 c -3.48,0 -6.68,-0.6 -9.6,-1.8 -2.92,-1.2 -5.46,-2.88 -7.62,-5.04 -2.12,-2.16 -3.78,-4.7 -4.98,-7.62 -1.16,-2.92 -1.74,-6.12 -1.74,-9.6 0,-3.44 0.58,-6.62 1.74,-9.54 1.2,-2.92 2.86,-5.46 4.98,-7.62 2.16,-2.16 4.7,-3.84 7.62,-5.04 2.92,-1.2 6.12,-1.8 9.6,-1.8 3.44,0 6.62,0.6 9.54,1.8 2.92,1.2 5.46,2.88 7.62,5.04 2.16,2.16 3.82,4.7 4.98,7.62 1.2,2.92 1.8,6.1 1.8,9.54 0,3.48 -0.6,6.68 -1.8,9.6 -1.16,2.92 -2.82,5.46 -4.98,7.62 -2.16,2.16 -4.7,3.84 -7.62,5.04 -2.92,1.2 -6.1,1.8 -9.54,1.8 z m 0,-4.44 c 2.76,0 5.32,-0.48 7.68,-1.44 2.36,-1 4.4,-2.38 6.12,-4.14 1.76,-1.8 3.12,-3.88 4.08,-6.24 0.96,-2.4 1.44,-5 1.44,-7.8 0,-2.76 -0.48,-5.32 -1.44,-7.68 -0.96,-2.4 -2.32,-4.48 -4.08,-6.24 -1.72,-1.8 -3.76,-3.18 -6.12,-4.14 -2.36,-1 -4.92,-1.5 -7.68,-1.5 -2.8,0 -5.38,0.5 -7.74,1.5 -2.36,0.96 -4.42,2.34 -6.18,4.14 -1.72,1.76 -3.06,3.84 -4.02,6.24 -0.96,2.36 -1.44,4.92 -1.44,7.68 0,2.8 0.48,5.4 1.44,7.8 0.96,2.36 2.3,4.44 4.02,6.24 1.76,1.76 3.82,3.14 6.18,4.14 2.36,0.96 4.94,1.44 7.74,1.44 z m 54.082,4.44 c -3.48,0 -6.68,-0.6 -9.6,-1.8 -2.92,-1.2 -5.46,-2.88 -7.62,-5.04 -2.12,-2.16 -3.78,-4.7 -4.98,-7.62 -1.16,-2.92 -1.74,-6.12 -1.74,-9.6 0,-3.44 0.58,-6.62 1.74,-9.54 1.2,-2.92 2.86,-5.46 4.98,-7.62 2.16,-2.16 4.7,-3.84 7.62,-5.04 2.92,-1.2 6.12,-1.8 9.6,-1.8 3.44,0 6.62,0.6 9.54,1.8 2.92,1.2 5.46,2.88 7.62,5.04 2.16,2.16 3.82,4.7 4.98,7.62 1.2,2.92 1.8,6.1 1.8,9.54 0,3.48 -0.6,6.68 -1.8,9.6 -1.16,2.92 -2.82,5.46 -4.98,7.62 -2.16,2.16 -4.7,3.84 -7.62,5.04 -2.92,1.2 -6.1,1.8 -9.54,1.8 z m 0,-4.44 c 2.76,0 5.32,-0.48 7.68,-1.44 2.36,-1 4.4,-2.38 6.12,-4.14 1.76,-1.8 3.12,-3.88 4.08,-6.24 0.96,-2.4 1.44,-5 1.44,-7.8 0,-2.76 -0.48,-5.32 -1.44,-7.68 -0.96,-2.4 -2.32,-4.48 -4.08,-6.24 -1.72,-1.8 -3.76,-3.18 -6.12,-4.14 -2.36,-1 -4.92,-1.5 -7.68,-1.5 -2.8,0 -5.38,0.5 -7.74,1.5 -2.36,0.96 -4.42,2.34 -6.18,4.14 -1.72,1.76 -3.06,3.84 -4.02,6.24 -0.96,2.36 -1.44,4.92 -1.44,7.68 0,2.8 0.48,5.4 1.44,7.8 0.96,2.36 2.3,4.44 4.02,6.24 1.76,1.76 3.82,3.14 6.18,4.14 2.36,0.96 4.94,1.44 7.74,1.44 z"
       fill="#ffffff"
       id="path2"
       style="fill:#000000" />
  </g>
  <g
     id="Ellipse 1"
     filter="url(#filter1_d)"
     transform="matrix(0.92615175,0,0,0.92328122,12.274083,7.6281554)">
    <circle
       cx="32.5"
       cy="97.5"
       r="32.5"
       fill="#a08fbd"
       id="circle5" />
  </g>
  <g
     id="Ellipse 4"
     filter="url(#filter2_d)"
     transform="matrix(0.92615175,0,0,0.92328122,12.274083,7.6281554)">
    <circle
       cx="240.5"
       cy="162.5"
       r="32.5"
       fill="#a08fbd"
       id="circle8" />
  </g>
  <g
     id="Ellipse 5"
     filter="url(#filter3_d)"
     transform="matrix(0.92615175,0,0,0.92328122,12.274083,7.6281554)">
    <circle
       cx="240.5"
       cy="32.5"
       r="32.5"
       fill="#a08fbd"
       id="circle11" />
  </g>
  <g
     id="Ellipse 3"
     filter="url(#filter4_d)"
     transform="matrix(0.92615175,0,0,0.92328122,12.274083,7.6281554)">
    <circle
       cx="290.5"
       cy="97.5"
       r="32.5"
       fill="#a08fbd"
       id="circle14" />
  </g>
  <defs
     id="defs103">
    <filter
       id="filter0_d"
       x="70.4"
       y="73.54"
       width="181.173"
       height="69.74"
       filterUnits="userSpaceOnUse"
       color-interpolation-filters="sRGB">
      <feFlood
         flood-opacity="0"
         result="BackgroundImageFix"
         id="feFlood18" />
      <feColorMatrix
         in="SourceAlpha"
         type="matrix"
         values="0 0 0 0 0 0 0 0 0 0 0 0 0 0 0 0 0 0 127 0"
         result="hardAlpha"
         id="feColorMatrix20" />
      <feOffset
         dy="4"
         id="feOffset22" />
      <feGaussianBlur
         stdDeviation="2"
         id="feGaussianBlur24" />
      <feComposite
         in2="hardAlpha"
         operator="out"
         id="feComposite26" />
      <feColorMatrix
         type="matrix"
         values="0 0 0 0 0 0 0 0 0 0 0 0 0 0 0 0 0 0 0.25 0"
         id="feColorMatrix28" />
      <feBlend
         mode="normal"
         in2="BackgroundImageFix"
         result="effect1_dropShadow"
         id="feBlend30" />
      <feBlend
         mode="normal"
         in="SourceGraphic"
         in2="effect1_dropShadow"
         result="shape"
         id="feBlend32" />
    </filter>
    <filter
       id="filter1_d"
       x="-4"
       y="65"
       width="73"
       height="73"
       filterUnits="userSpaceOnUse"
       color-interpolation-filters="sRGB">
      <feFlood
         flood-opacity="0"
         result="BackgroundImageFix"
         id="feFlood35" />
      <feColorMatrix
         in="SourceAlpha"
         type="matrix"
         values="0 0 0 0 0 0 0 0 0 0 0 0 0 0 0 0 0 0 127 0"
         result="hardAlpha"
         id="feColorMatrix37" />
      <feOffset
         dy="4"
         id="feOffset39" />
      <feGaussianBlur
         stdDeviation="2"
         id="feGaussianBlur41" />
      <feComposite
         in2="hardAlpha"
         operator="out"
         id="feComposite43" />
      <feColorMatrix
         type="matrix"
         values="0 0 0 0 0 0 0 0 0 0 0 0 0 0 0 0 0 0 0.25 0"
         id="feColorMatrix45" />
      <feBlend
         mode="normal"
         in2="BackgroundImageFix"
         result="effect1_dropShadow"
         id="feBlend47" />
      <feBlend
         mode="normal"
         in="SourceGraphic"
         in2="effect1_dropShadow"
         result="shape"
         id="feBlend49" />
    </filter>
    <filter
       id="filter2_d"
       x="204"
       y="130"
       width="73"
       height="73"
       filterUnits="userSpaceOnUse"
       color-interpolation-filters="sRGB">
      <feFlood
         flood-opacity="0"
         result="BackgroundImageFix"
         id="feFlood52" />
      <feColorMatrix
         in="SourceAlpha"
         type="matrix"
         values="0 0 0 0 0 0 0 0 0 0 0 0 0 0 0 0 0 0 127 0"
         result="hardAlpha"
         id="feColorMatrix54" />
      <feOffset
         dy="4"
         id="feOffset56" />
      <feGaussianBlur
         stdDeviation="2"
         id="feGaussianBlur58" />
      <feComposite
         in2="hardAlpha"
         operator="out"
         id="feComposite60" />
      <feColorMatrix
         type="matrix"
         values="0 0 0 0 0 0 0 0 0 0 0 0 0 0 0 0 0 0 0.25 0"
         id="feColorMatrix62" />
      <feBlend
         mode="normal"
         in2="BackgroundImageFix"
         result="effect1_dropShadow"
         id="feBlend64" />
      <feBlend
         mode="normal"
         in="SourceGraphic"
         in2="effect1_dropShadow"
         result="shape"
         id="feBlend66" />
    </filter>
    <filter
       id="filter3_d"
       x="204"
       y="0"
       width="73"
       height="73"
       filterUnits="userSpaceOnUse"
       color-interpolation-filters="sRGB">
      <feFlood
         flood-opacity="0"
         result="BackgroundImageFix"
         id="feFlood69" />
      <feColorMatrix
         in="SourceAlpha"
         type="matrix"
         values="0 0 0 0 0 0 0 0 0 0 0 0 0 0 0 0 0 0 127 0"
         result="hardAlpha"
         id="feColorMatrix71" />
      <feOffset
         dy="4"
         id="feOffset73" />
      <feGaussianBlur
         stdDeviation="2"
         id="feGaussianBlur75" />
      <feComposite
         in2="hardAlpha"
         operator="out"
         id="feComposite77" />
      <feColorMatrix
         type="matrix"
         values="0 0 0 0 0 0 0 0 0 0 0 0 0 0 0 0 0 0 0.25 0"
         id="feColorMatrix79" />
      <feBlend
         mode="normal"
         in2="BackgroundImageFix"
         result="effect1_dropShadow"
         id="feBlend81" />
      <feBlend
         mode="normal"
         in="SourceGraphic"
         in2="effect1_dropShadow"
         result="shape"
         id="feBlend83" />
    </filter>
    <filter
       id="filter4_d"
       x="254"
       y="65"
       width="73"
       height="73"
       filterUnits="userSpaceOnUse"
       color-interpolation-filters="sRGB">
      <feFlood
         flood-opacity="0"
         result="BackgroundImageFix"
         id="feFlood86" />
      <feColorMatrix
         in="SourceAlpha"
         type="matrix"
         values="0 0 0 0 0 0 0 0 0 0 0 0 0 0 0 0 0 0 127 0"
         result="hardAlpha"
         id="feColorMatrix88" />
      <feOffset
         dy="4"
         id="feOffset90" />
      <feGaussianBlur
         stdDeviation="2"
         id="feGaussianBlur92" />
      <feComposite
         in2="hardAlpha"
         operator="out"
         id="feComposite94" />
      <feColorMatrix
         type="matrix"
         values="0 0 0 0 0 0 0 0 0 0 0 0 0 0 0 0 0 0 0.25 0"
         id="feColorMatrix96" />
      <feBlend
         mode="normal"
         in2="BackgroundImageFix"
         result="effect1_dropShadow"
         id="feBlend98" />
      <feBlend
         mode="normal"
         in="SourceGraphic"
         in2="effect1_dropShadow"
         result="shape"
         id="feBlend100" />
    </filter>
  </defs>
</svg>
