<svg width="323" height="197" viewBox="0 0 323 197" fill="none" xmlns="http://www.w3.org/2000/svg">
<g id="Group 1">
<g id="byOO" filter="url(#filter0_d)">
<path d="M91.02 118.3C87.9 118.3 85.08 117.58 82.56 116.14C80.08 114.7 78.1 112.74 76.62 110.26C75.18 107.74 74.44 104.92 74.4 101.8V73.48C74.4 72.76 74.6 72.2 75 71.8C75.44 71.36 76.02 71.14 76.74 71.14C77.42 71.14 77.96 71.36 78.36 71.8C78.8 72.2 79.02 72.76 79.02 73.48V91.12C80.34 89.24 82.08 87.74 84.24 86.62C86.44 85.46 88.88 84.88 91.56 84.88C94.64 84.88 97.4 85.62 99.84 87.1C102.28 88.54 104.2 90.52 105.6 93.04C107.04 95.56 107.76 98.4 107.76 101.56C107.76 104.76 107.02 107.62 105.54 110.14C104.1 112.66 102.12 114.66 99.6 116.14C97.08 117.58 94.22 118.3 91.02 118.3ZM91.02 114.1C93.34 114.1 95.42 113.56 97.26 112.48C99.1 111.36 100.54 109.86 101.58 107.98C102.66 106.1 103.2 103.96 103.2 101.56C103.2 99.2 102.66 97.08 101.58 95.2C100.54 93.28 99.1 91.78 97.26 90.7C95.42 89.62 93.34 89.08 91.02 89.08C88.74 89.08 86.68 89.62 84.84 90.7C83 91.78 81.56 93.28 80.52 95.2C79.48 97.08 78.96 99.2 78.96 101.56C78.96 103.96 79.48 106.1 80.52 107.98C81.56 109.86 83 111.36 84.84 112.48C86.68 113.56 88.74 114.1 91.02 114.1ZM120.645 132.28C120.325 132.28 119.965 132.2 119.565 132.04C118.205 131.44 117.825 130.48 118.425 129.16L124.425 116.02L124.365 115.96L110.985 88.24C110.705 87.64 110.665 87.08 110.865 86.56C111.065 86.04 111.465 85.64 112.065 85.36C113.385 84.76 114.345 85.1 114.945 86.38L126.645 111.04L137.805 86.44C138.405 85.16 139.365 84.8 140.685 85.36C142.045 85.92 142.425 86.86 141.825 88.18L122.385 130.9C121.985 131.82 121.405 132.28 120.645 132.28ZM169.551 118.6C166.071 118.6 162.871 118 159.951 116.8C157.031 115.6 154.491 113.92 152.331 111.76C150.211 109.6 148.551 107.06 147.351 104.14C146.191 101.22 145.611 98.02 145.611 94.54C145.611 91.1 146.191 87.92 147.351 85C148.551 82.08 150.211 79.54 152.331 77.38C154.491 75.22 157.031 73.54 159.951 72.34C162.871 71.14 166.071 70.54 169.551 70.54C172.991 70.54 176.171 71.14 179.091 72.34C182.011 73.54 184.551 75.22 186.711 77.38C188.871 79.54 190.531 82.08 191.691 85C192.891 87.92 193.491 91.1 193.491 94.54C193.491 98.02 192.891 101.22 191.691 104.14C190.531 107.06 188.871 109.6 186.711 111.76C184.551 113.92 182.011 115.6 179.091 116.8C176.171 118 172.991 118.6 169.551 118.6ZM169.551 114.16C172.311 114.16 174.871 113.68 177.231 112.72C179.591 111.72 181.631 110.34 183.351 108.58C185.111 106.78 186.471 104.7 187.431 102.34C188.391 99.94 188.871 97.34 188.871 94.54C188.871 91.78 188.391 89.22 187.431 86.86C186.471 84.46 185.111 82.38 183.351 80.62C181.631 78.82 179.591 77.44 177.231 76.48C174.871 75.48 172.311 74.98 169.551 74.98C166.751 74.98 164.171 75.48 161.811 76.48C159.451 77.44 157.391 78.82 155.631 80.62C153.911 82.38 152.571 84.46 151.611 86.86C150.651 89.22 150.171 91.78 150.171 94.54C150.171 97.34 150.651 99.94 151.611 102.34C152.571 104.7 153.911 106.78 155.631 108.58C157.391 110.34 159.451 111.72 161.811 112.72C164.171 113.68 166.751 114.16 169.551 114.16ZM223.633 118.6C220.153 118.6 216.953 118 214.033 116.8C211.113 115.6 208.573 113.92 206.413 111.76C204.293 109.6 202.633 107.06 201.433 104.14C200.273 101.22 199.693 98.02 199.693 94.54C199.693 91.1 200.273 87.92 201.433 85C202.633 82.08 204.293 79.54 206.413 77.38C208.573 75.22 211.113 73.54 214.033 72.34C216.953 71.14 220.153 70.54 223.633 70.54C227.073 70.54 230.253 71.14 233.173 72.34C236.093 73.54 238.633 75.22 240.793 77.38C242.953 79.54 244.613 82.08 245.773 85C246.973 87.92 247.573 91.1 247.573 94.54C247.573 98.02 246.973 101.22 245.773 104.14C244.613 107.06 242.953 109.6 240.793 111.76C238.633 113.92 236.093 115.6 233.173 116.8C230.253 118 227.073 118.6 223.633 118.6ZM223.633 114.16C226.393 114.16 228.953 113.68 231.313 112.72C233.673 111.72 235.713 110.34 237.433 108.58C239.193 106.78 240.553 104.7 241.513 102.34C242.473 99.94 242.953 97.34 242.953 94.54C242.953 91.78 242.473 89.22 241.513 86.86C240.553 84.46 239.193 82.38 237.433 80.62C235.713 78.82 233.673 77.44 231.313 76.48C228.953 75.48 226.393 74.98 223.633 74.98C220.833 74.98 218.253 75.48 215.893 76.48C213.533 77.44 211.473 78.82 209.713 80.62C207.993 82.38 206.653 84.46 205.693 86.86C204.733 89.22 204.253 91.78 204.253 94.54C204.253 97.34 204.733 99.94 205.693 102.34C206.653 104.7 207.993 106.78 209.713 108.58C211.473 110.34 213.533 111.72 215.893 112.72C218.253 113.68 220.833 114.16 223.633 114.16Z" fill="#A08FBD"/>
</g>
<g id="Ellipse 1" filter="url(#filter1_d)">
<circle cx="36.5" cy="97.5" r="32.5" fill="#BCBABE"/>
</g>
<g id="Ellipse 4" filter="url(#filter2_d)">
<circle cx="236.5" cy="156.5" r="32.5" fill="#BCBABE"/>
</g>
<g id="Ellipse 5" filter="url(#filter3_d)">
<circle cx="236.5" cy="32.5" r="32.5" fill="#BCBABE"/>
</g>
<g id="Ellipse 3" filter="url(#filter4_d)">
<circle cx="286.5" cy="99.5" r="32.5" fill="#BCBABE"/>
</g>
</g>
<defs>
<filter id="filter0_d" x="70.4" y="70.54" width="181.173" height="69.74" filterUnits="userSpaceOnUse" color-interpolation-filters="sRGB">
<feFlood flood-opacity="0" result="BackgroundImageFix"/>
<feColorMatrix in="SourceAlpha" type="matrix" values="0 0 0 0 0 0 0 0 0 0 0 0 0 0 0 0 0 0 127 0" result="hardAlpha"/>
<feOffset dy="4"/>
<feGaussianBlur stdDeviation="2"/>
<feComposite in2="hardAlpha" operator="out"/>
<feColorMatrix type="matrix" values="0 0 0 0 0 0 0 0 0 0 0 0 0 0 0 0 0 0 0.25 0"/>
<feBlend mode="normal" in2="BackgroundImageFix" result="effect1_dropShadow"/>
<feBlend mode="normal" in="SourceGraphic" in2="effect1_dropShadow" result="shape"/>
</filter>
<filter id="filter1_d" x="0" y="65" width="73" height="73" filterUnits="userSpaceOnUse" color-interpolation-filters="sRGB">
<feFlood flood-opacity="0" result="BackgroundImageFix"/>
<feColorMatrix in="SourceAlpha" type="matrix" values="0 0 0 0 0 0 0 0 0 0 0 0 0 0 0 0 0 0 127 0" result="hardAlpha"/>
<feOffset dy="4"/>
<feGaussianBlur stdDeviation="2"/>
<feComposite in2="hardAlpha" operator="out"/>
<feColorMatrix type="matrix" values="0 0 0 0 0 0 0 0 0 0 0 0 0 0 0 0 0 0 0.25 0"/>
<feBlend mode="normal" in2="BackgroundImageFix" result="effect1_dropShadow"/>
<feBlend mode="normal" in="SourceGraphic" in2="effect1_dropShadow" result="shape"/>
</filter>
<filter id="filter2_d" x="200" y="124" width="73" height="73" filterUnits="userSpaceOnUse" color-interpolation-filters="sRGB">
<feFlood flood-opacity="0" result="BackgroundImageFix"/>
<feColorMatrix in="SourceAlpha" type="matrix" values="0 0 0 0 0 0 0 0 0 0 0 0 0 0 0 0 0 0 127 0" result="hardAlpha"/>
<feOffset dy="4"/>
<feGaussianBlur stdDeviation="2"/>
<feComposite in2="hardAlpha" operator="out"/>
<feColorMatrix type="matrix" values="0 0 0 0 0 0 0 0 0 0 0 0 0 0 0 0 0 0 0.25 0"/>
<feBlend mode="normal" in2="BackgroundImageFix" result="effect1_dropShadow"/>
<feBlend mode="normal" in="SourceGraphic" in2="effect1_dropShadow" result="shape"/>
</filter>
<filter id="filter3_d" x="200" y="0" width="73" height="73" filterUnits="userSpaceOnUse" color-interpolation-filters="sRGB">
<feFlood flood-opacity="0" result="BackgroundImageFix"/>
<feColorMatrix in="SourceAlpha" type="matrix" values="0 0 0 0 0 0 0 0 0 0 0 0 0 0 0 0 0 0 127 0" result="hardAlpha"/>
<feOffset dy="4"/>
<feGaussianBlur stdDeviation="2"/>
<feComposite in2="hardAlpha" operator="out"/>
<feColorMatrix type="matrix" values="0 0 0 0 0 0 0 0 0 0 0 0 0 0 0 0 0 0 0.25 0"/>
<feBlend mode="normal" in2="BackgroundImageFix" result="effect1_dropShadow"/>
<feBlend mode="normal" in="SourceGraphic" in2="effect1_dropShadow" result="shape"/>
</filter>
<filter id="filter4_d" x="250" y="67" width="73" height="73" filterUnits="userSpaceOnUse" color-interpolation-filters="sRGB">
<feFlood flood-opacity="0" result="BackgroundImageFix"/>
<feColorMatrix in="SourceAlpha" type="matrix" values="0 0 0 0 0 0 0 0 0 0 0 0 0 0 0 0 0 0 127 0" result="hardAlpha"/>
<feOffset dy="4"/>
<feGaussianBlur stdDeviation="2"/>
<feComposite in2="hardAlpha" operator="out"/>
<feColorMatrix type="matrix" values="0 0 0 0 0 0 0 0 0 0 0 0 0 0 0 0 0 0 0.25 0"/>
<feBlend mode="normal" in2="BackgroundImageFix" result="effect1_dropShadow"/>
<feBlend mode="normal" in="SourceGraphic" in2="effect1_dropShadow" result="shape"/>
</filter>
</defs>
</svg>
