<svg width="3598" height="765" viewBox="0 0 3598 765" fill="none" xmlns="http://www.w3.org/2000/svg">
<g id="Group 2">
<g id="undraw_Search_re_x5gq 1" clip-path="url(#clip0)">
<path id="Vector" d="M726.072 403.063H142.928C134.993 403.055 127.386 399.899 121.776 394.288C116.165 388.677 113.009 381.07 113 373.135V345.928C113.009 337.993 116.165 330.386 121.776 324.776C127.386 319.165 134.993 316.009 142.928 316H726.072C734.007 316.009 741.614 319.165 747.224 324.776C752.835 330.386 755.991 337.993 756 345.928V373.135C755.991 381.07 752.835 388.677 747.224 394.288C741.614 399.899 734.007 403.055 726.072 403.063V403.063ZM142.928 317.814C135.474 317.822 128.328 320.787 123.058 326.058C117.787 331.328 114.822 338.474 114.814 345.928V373.135C114.822 380.589 117.787 387.735 123.058 393.006C128.328 398.276 135.474 401.241 142.928 401.25H726.072C733.526 401.241 740.672 398.276 745.942 393.006C751.213 387.735 754.178 380.589 754.186 373.135V345.928C754.178 338.474 751.213 331.328 745.942 326.058C740.672 320.787 733.526 317.822 726.072 317.814H142.928Z" fill="#3F3D56"/>
<path id="Vector_2" d="M574.618 342.3H187.367C177.85 342.3 170.135 350.015 170.135 359.532V359.532C170.135 369.048 177.85 376.763 187.367 376.763H574.618C584.134 376.763 591.849 369.048 591.849 359.532C591.849 350.015 584.134 342.3 574.618 342.3Z" fill="#E6E6E6"/>
<path id="Vector_3" d="M625.405 493.43H238.154C228.637 493.43 220.922 501.145 220.922 510.661V510.662C220.922 520.178 228.637 527.893 238.154 527.893H625.405C634.921 527.893 642.636 520.178 642.636 510.661C642.636 501.145 634.921 493.43 625.405 493.43Z" fill="#6C63FF"/>
<path id="Vector_4" d="M625.405 603.004H238.154C228.637 603.004 220.922 610.719 220.922 620.236V620.236C220.922 629.752 228.637 637.467 238.154 637.467H625.405C634.921 637.467 642.636 629.752 642.636 620.236C642.636 610.719 634.921 603.004 625.405 603.004Z" fill="#E6E6E6"/>
<path id="Vector_5" d="M625.405 712.578H238.154C228.637 712.578 220.922 720.293 220.922 729.81V729.81C220.922 739.326 228.637 747.041 238.154 747.041H625.405C634.921 747.041 642.636 739.326 642.636 729.81C642.636 720.293 634.921 712.578 625.405 712.578Z" fill="#E6E6E6"/>
<path id="Vector_6" d="M699.312 378.147C698.899 378.737 698.269 379.138 697.56 379.263C696.852 379.388 696.122 379.227 695.532 378.814L680.726 368.511C680.136 368.098 679.735 367.468 679.61 366.759C679.485 366.05 679.646 365.321 680.059 364.731C680.472 364.142 681.102 363.74 681.811 363.615C682.52 363.49 683.249 363.652 683.839 364.065L698.646 374.367C699.235 374.78 699.637 375.411 699.762 376.119C699.887 376.828 699.725 377.558 699.312 378.147Z" fill="#6C63FF"/>
<path id="Vector_7" d="M682.502 366.442C680.317 369.563 677.255 371.967 673.703 373.348C670.152 374.729 666.27 375.026 662.55 374.201C658.83 373.377 655.438 371.467 652.802 368.715C650.167 365.962 648.408 362.49 647.746 358.737C647.084 354.984 647.55 351.12 649.085 347.632C650.619 344.144 653.154 341.189 656.368 339.142C659.581 337.094 663.33 336.046 667.14 336.129C670.95 336.212 674.649 337.423 677.771 339.609C681.952 342.543 684.798 347.016 685.685 352.047C686.572 357.077 685.427 362.254 682.502 366.442ZM654.883 347.103C653.244 349.444 652.336 352.219 652.273 355.076C652.211 357.933 652.997 360.745 654.533 363.155C656.069 365.566 658.284 367.466 660.9 368.617C663.516 369.768 666.415 370.118 669.229 369.622C672.044 369.125 674.648 367.806 676.712 365.829C678.777 363.853 680.209 361.309 680.827 358.519C681.446 355.728 681.223 352.817 680.187 350.154C679.151 347.49 677.349 345.194 675.008 343.554C671.867 341.36 667.985 340.502 664.212 341.167C660.439 341.833 657.084 343.967 654.883 347.103V347.103Z" fill="#6C63FF"/>
<path id="Vector_8" d="M709.294 544.332H159.706C159.465 544.332 159.235 544.237 159.065 544.067C158.894 543.897 158.799 543.666 158.799 543.425C158.799 543.185 158.894 542.954 159.065 542.784C159.235 542.614 159.465 542.518 159.706 542.518H709.294C709.535 542.518 709.765 542.614 709.935 542.784C710.105 542.954 710.201 543.185 710.201 543.425C710.201 543.666 710.105 543.897 709.935 544.067C709.765 544.237 709.535 544.332 709.294 544.332Z" fill="#3F3D56"/>
<path id="Vector_9" d="M709.294 653.952H159.706C159.465 653.952 159.235 653.856 159.065 653.686C158.894 653.516 158.799 653.285 158.799 653.045C158.799 652.804 158.894 652.573 159.065 652.403C159.235 652.233 159.465 652.138 159.706 652.138H709.294C709.535 652.138 709.765 652.233 709.935 652.403C710.105 652.573 710.201 652.804 710.201 653.045C710.201 653.285 710.105 653.516 709.935 653.686C709.765 653.856 709.535 653.952 709.294 653.952V653.952Z" fill="#3F3D56"/>
<path id="Vector_10" d="M709.294 763.57H159.706C159.465 763.57 159.235 763.475 159.065 763.305C158.894 763.135 158.799 762.904 158.799 762.663C158.799 762.423 158.894 762.192 159.065 762.022C159.235 761.852 159.465 761.756 159.706 761.756H709.294C709.535 761.756 709.765 761.852 709.935 762.022C710.105 762.192 710.201 762.423 710.201 762.663C710.201 762.904 710.105 763.135 709.935 763.305C709.765 763.475 709.535 763.57 709.294 763.57V763.57Z" fill="#3F3D56"/>
</g>
<path id="Ellipse 97" d="M177.417 125.457C199.107 125.457 216.69 107.874 216.69 86.184C216.69 64.4942 199.107 46.911 177.417 46.911C155.727 46.911 138.144 64.4942 138.144 86.184C138.144 107.874 155.727 125.457 177.417 125.457Z" fill="#2F2E41"/>
<path id="Path 630" d="M79.6813 422.209H62.4813L54.3003 355.883H79.6793L79.6813 422.209Z" fill="#FEB8B8"/>
<path id="Path 631" d="M50.2033 417.295H83.3663V438.176H29.3223C29.3223 432.638 31.5222 427.327 35.4382 423.411C39.3541 419.495 44.6653 417.295 50.2033 417.295V417.295Z" fill="#2F2E41"/>
<path id="Path 632" d="M52.8383 412.612L36.4323 407.463L48.4843 341.728L72.6983 349.328L52.8383 412.612Z" fill="#FEB8B8"/>
<path id="Path 633" d="M26.1743 399.1L57.8167 409.03L51.5645 428.953L0 412.771C0.821058 410.155 2.14939 407.726 3.90918 405.623C5.66897 403.52 7.82573 401.784 10.2563 400.515C12.6869 399.245 15.3438 398.467 18.0751 398.224C20.8065 397.982 23.559 398.279 26.1753 399.1V399.1L26.1743 399.1Z" fill="#2F2E41"/>
<path id="Path 634" d="M58.4333 386.145C57.6819 386.145 56.9366 386.009 56.2332 385.745L43.5782 381.002C42.158 380.465 40.9781 379.435 40.2536 378.1C39.5292 376.765 39.3083 375.215 39.6312 373.731C42.8162 359.41 53.6712 310.654 59.6152 284.503C66.6642 253.484 169.5 247.72 173.874 247.49L174.234 247.471L185.802 262.002C189.982 275.438 188.657 285.918 181.864 293.152C162.041 314.257 102.858 301.161 95.8014 299.504L64.3463 382.081C63.8879 383.277 63.0776 384.305 62.0224 385.031C60.9673 385.756 59.7168 386.145 58.4363 386.145H58.4333Z" fill="#2F2E41"/>
<path id="Path 635" d="M76.6672 395.964C75.9158 395.964 75.1706 395.828 74.4672 395.564L61.8162 390.82C60.3958 390.283 59.2158 389.253 58.4913 387.918C57.7668 386.583 57.546 385.033 57.8692 383.549C61.0542 369.228 71.9092 320.472 77.8532 294.321C84.9022 263.302 187.738 257.538 192.112 257.308L192.472 257.289L204.036 271.824C208.216 285.26 206.891 295.74 200.098 302.974C180.276 324.074 121.092 310.983 114.035 309.325L82.5762 391.899C82.1178 393.095 81.3075 394.123 80.2523 394.849C79.1972 395.574 77.9468 395.963 76.6662 395.963L76.6672 395.964Z" fill="#2F2E41"/>
<path id="Path 636" d="M40.0663 193.955C40.5309 194.577 40.9458 195.234 41.3073 195.921L110.485 203.209L120.445 189.555L143.014 201.89L123.455 235.022L38.6143 213.39C36.4738 215.477 33.7486 216.863 30.8013 217.363C27.8539 217.863 24.8241 217.455 22.1148 216.191C19.4054 214.928 17.1449 212.869 15.6339 210.29C14.123 207.71 13.4331 204.732 13.6561 201.75C13.8792 198.769 15.0045 195.927 16.8824 193.601C18.7604 191.275 21.302 189.575 24.1692 188.729C27.0364 187.883 30.0933 187.929 32.9334 188.863C35.7734 189.796 38.2621 191.572 40.0683 193.954L40.0663 193.955Z" fill="#FEB8B8"/>
<path id="Path 637" d="M200.825 277.388C199.825 277.386 198.84 277.146 197.95 276.688C184.117 269.654 157.181 257.473 132.203 254.924C131.348 254.84 130.521 254.579 129.773 254.156C129.025 253.733 128.374 253.159 127.861 252.47C127.339 251.774 126.965 250.977 126.764 250.13C126.563 249.283 126.538 248.403 126.692 247.546C128.946 235.069 134.116 203.297 133.45 177.834C133.254 170.005 135.728 162.342 140.464 156.105C145.201 149.868 151.919 145.428 159.513 143.515V143.515C164.084 142.309 168.727 141.393 173.413 140.774C178.801 140.092 184.274 140.681 189.394 142.494C194.513 144.307 199.137 147.294 202.895 151.216C206.652 155.137 209.439 159.884 211.032 165.076C212.625 170.269 212.98 175.762 212.068 181.116C207.614 207.504 203.123 244.36 207.026 270.088C207.205 271.241 207.062 272.421 206.612 273.498C206.162 274.575 205.422 275.506 204.475 276.188C203.416 276.964 202.138 277.384 200.825 277.388V277.388Z" fill="#CCCCCC"/>
<path id="Path 638" d="M134.731 210.27C133.869 210.269 133.016 210.091 132.225 209.747L114.204 201.947C112.669 201.28 111.461 200.032 110.846 198.476C110.23 196.92 110.256 195.184 110.919 193.647L124.849 161.468C125.677 159.518 126.88 157.75 128.391 156.265C129.902 154.781 131.69 153.608 133.654 152.814C135.618 152.02 137.719 151.621 139.837 151.64C141.955 151.658 144.049 152.093 145.999 152.921C147.949 153.748 149.716 154.952 151.201 156.462C152.686 157.973 153.859 159.761 154.653 161.725C155.446 163.689 155.845 165.79 155.827 167.908C155.809 170.026 155.374 172.12 154.546 174.07C154.516 174.141 154.485 174.212 154.454 174.282L140.524 206.462C140.034 207.592 139.225 208.553 138.196 209.23C137.167 209.906 135.963 210.268 134.731 210.27Z" fill="#CCCCCC"/>
<path id="Ellipse 98" d="M175.982 129.827C195.008 129.827 210.432 114.403 210.432 95.377C210.432 76.3508 195.008 60.927 175.982 60.927C156.956 60.927 141.532 76.3508 141.532 95.377C141.532 114.403 156.956 129.827 175.982 129.827Z" fill="#FEB8B8"/>
<path id="Path 639" d="M140.912 78.448C157.23 88.4093 175.626 94.4708 194.669 96.161L189.002 89.372C193.128 90.8975 197.47 91.7595 201.865 91.926C204.066 91.9899 206.252 91.5369 208.246 90.6034C210.24 89.67 211.988 88.2821 213.348 86.551C214.459 84.7543 215.119 82.7156 215.272 80.6087C215.425 78.5018 215.066 76.3892 214.225 74.451C212.499 70.5839 209.811 67.2229 206.418 64.688C200.404 59.9307 193.307 56.7351 185.758 55.386C178.21 54.0369 170.445 54.5763 163.155 56.956C158.155 58.4503 153.677 61.323 150.233 65.245C146.967 69.274 140.68 72.864 142.352 77.773L140.912 78.448Z" fill="#2F2E41"/>
<path id="Path 640" d="M179.062 49.4271C185.929 42.462 194.239 37.0868 203.407 33.68C209.227 31.232 215.609 30.4398 221.85 31.391C228.003 32.629 233.821 36.885 235.538 42.922C236.938 47.858 235.492 53.173 233.314 57.822C231.136 62.471 228.228 66.778 226.466 71.598C224.669 76.5163 224.128 81.8056 224.893 86.9858C225.659 92.166 227.706 97.073 230.849 101.261C233.991 105.45 238.131 108.787 242.89 110.97C247.65 113.153 252.88 114.112 258.104 113.761C252.059 114.572 246.487 117.413 240.578 118.924C234.669 120.435 227.695 120.334 223.304 116.1C218.658 111.621 218.565 104.339 218.79 97.8901L219.79 69.128C219.96 64.239 220.106 59.193 218.342 54.628C216.578 50.063 212.388 46.0681 207.496 46.1101C203.788 46.1411 200.507 48.388 197.533 50.603C194.559 52.818 191.412 55.1811 187.719 55.5111C184.026 55.8411 179.809 53.111 180.085 49.411" fill="#2F2E41"/>
<path id="Path 641" d="M118.063 268.538C115.781 268.535 113.527 268.026 111.465 267.048C109.403 266.069 107.583 264.645 106.138 262.879C104.692 261.112 103.656 259.047 103.105 256.832C102.553 254.617 102.5 252.308 102.948 250.07C103.397 247.832 104.336 245.721 105.699 243.89C107.061 242.058 108.813 240.552 110.828 239.479C112.843 238.406 115.07 237.794 117.35 237.685C119.63 237.577 121.906 237.976 124.013 238.853V238.853C124.647 239.121 125.262 239.432 125.852 239.785L188.607 211.614L190.37 194.594L217.421 193.87L217.242 222.205C217.21 225.488 216.119 228.673 214.132 231.286C212.146 233.9 209.369 235.804 206.215 236.714L132.83 257.599C132.689 258.084 132.522 258.561 132.33 259.028C131.153 261.84 129.172 264.243 126.635 265.934C124.098 267.626 121.119 268.531 118.07 268.537L118.063 268.538Z" fill="#FEB8B8"/>
<path id="Path 642" d="M215.13 207.754C214.361 208.143 213.52 208.371 212.659 208.422L193.059 209.627C191.389 209.728 189.747 209.162 188.493 208.054C187.24 206.945 186.477 205.385 186.372 203.715L184.221 168.715C183.964 164.448 185.41 160.253 188.244 157.052C191.077 153.851 195.065 151.905 199.332 151.643C203.599 151.38 207.795 152.822 211 155.652C214.204 158.481 216.154 162.467 216.421 166.734L218.573 201.734C218.648 202.963 218.362 204.188 217.751 205.257C217.14 206.327 216.23 207.194 215.132 207.754H215.13Z" fill="#CCCCCC"/>
<path id="Rectangle 91" d="M175.663 262.258H58.5943C57.6123 262.258 56.8163 263.054 56.8163 264.036V270.298C56.8163 271.28 57.6123 272.076 58.5943 272.076H175.663C176.645 272.076 177.441 271.28 177.441 270.298V264.036C177.441 263.054 176.645 262.258 175.663 262.258Z" fill="#3F3D56"/>
<path id="Path 643" d="M11.8333 262.96V194.231C11.8362 191.814 12.7976 189.497 14.5068 187.788C16.2159 186.078 18.5332 185.117 20.9503 185.114H145.783C148.2 185.117 150.518 186.078 152.227 187.787C153.936 189.496 154.898 191.814 154.9 194.231V262.96C154.898 265.377 153.936 267.695 152.227 269.404C150.518 271.113 148.2 272.074 145.783 272.077H20.9503C18.5332 272.074 16.2159 271.113 14.5068 269.404C12.7976 267.694 11.8362 265.377 11.8333 262.96V262.96Z" fill="#3F3D56"/>
<path id="Ellipse 99" d="M84.8683 237.015C89.5163 237.015 93.2843 233.247 93.2843 228.599C93.2843 223.951 89.5163 220.183 84.8683 220.183C80.2202 220.183 76.4523 223.951 76.4523 228.599C76.4523 233.247 80.2202 237.015 84.8683 237.015Z" fill="white"/>
<path id="Path 499" d="M2145.22 748.503H2129.52L2122.05 687.048H2145.23L2145.22 748.503Z" fill="#FFB8B8"/>
<path id="Path 500" d="M2118.31 743.949H2148.59V763.294H2099.24C2099.24 758.164 2101.24 753.243 2104.82 749.615C2108.4 745.987 2113.25 743.949 2118.31 743.949Z" fill="#2F2E41"/>
<path id="Path 501" d="M2109.58 707.726L2094.33 711.527L2072.62 653.663L2095.13 648.052L2109.58 707.726Z" fill="#FFB8B8"/>
<path id="Path 502" d="M2082.58 709.272L2111.99 701.929L2116.55 720.713L2068.62 732.68C2067.41 727.698 2068.21 722.433 2070.82 718.043C2073.44 713.654 2077.67 710.498 2082.58 709.272V709.272Z" fill="#2F2E41"/>
<path id="Path 503" d="M2126.85 728.907C2125.41 728.912 2124.03 728.375 2122.96 727.402C2121.9 726.429 2121.22 725.088 2121.08 723.641L2103.01 552.863L2087.29 605.088L2109.56 686.655C2109.94 688.054 2109.8 689.546 2109.17 690.846C2108.53 692.147 2107.45 693.163 2106.12 693.701L2088.41 700.886C2087.68 701.182 2086.9 701.325 2086.12 701.306C2085.33 701.287 2084.56 701.107 2083.84 700.777C2083.13 700.447 2082.49 699.973 2081.96 699.384C2081.43 698.796 2081.02 698.104 2080.77 697.352L2053.47 617.909C2050.48 609.235 2049.16 600.061 2049.58 590.882L2053.39 505.147L2153.72 509.457L2152.16 721.575C2152.14 723.051 2151.58 724.468 2150.59 725.547C2149.59 726.626 2148.24 727.289 2146.79 727.408L2127.3 728.898C2127.15 728.904 2127 728.907 2126.85 728.907Z" fill="#2F2E41"/>
<path id="Path 511" d="M1893.94 32H1243.91C1237.84 32.0074 1232.01 34.4587 1227.72 38.8162C1223.42 43.1738 1221.01 49.0817 1221 55.2442V126.203C1221.01 132.366 1223.42 138.273 1227.72 142.631C1232.01 146.989 1237.84 149.44 1243.91 149.447H1893.94C1900.01 149.44 1905.83 146.989 1910.13 142.631C1914.43 138.273 1916.84 132.366 1916.85 126.203V55.2442C1916.84 49.0817 1914.43 43.1738 1910.13 38.8162C1905.83 34.4587 1900.01 32.0074 1893.94 32ZM1914.44 126.203C1914.43 131.716 1912.27 137.001 1908.42 140.9C1904.58 144.798 1899.37 146.992 1893.94 147H1243.91C1238.48 146.992 1233.27 144.798 1229.43 140.9C1225.58 137.001 1223.42 131.716 1223.41 126.203V55.2442C1223.42 49.7309 1225.58 44.4458 1229.43 40.5473C1233.27 36.6489 1238.48 34.4552 1243.91 34.447H1893.94C1899.37 34.4552 1904.58 36.6489 1908.42 40.5473C1912.27 44.4458 1914.43 49.7309 1914.44 55.2442V126.203Z" fill="#3F3D56"/>
<path id="Path 512" d="M1893.94 317.052H1243.91C1237.84 317.045 1232.01 314.593 1227.72 310.236C1223.42 305.878 1221.01 299.97 1221 293.808V222.85C1221.01 216.688 1223.42 210.78 1227.72 206.422C1232.01 202.065 1237.84 199.614 1243.91 199.606H1893.94C1900.01 199.614 1905.83 202.065 1910.13 206.422C1914.43 210.78 1916.84 216.688 1916.85 222.85V293.808C1916.84 299.97 1914.43 305.878 1910.13 310.236C1905.83 314.593 1900.01 317.045 1893.94 317.052ZM1243.91 202.053C1238.48 202.059 1233.27 204.253 1229.42 208.151C1225.58 212.05 1223.42 217.337 1223.41 222.85V293.808C1223.42 299.322 1225.58 304.61 1229.42 308.509C1233.27 312.409 1238.48 314.603 1243.91 314.609H1893.94C1899.37 314.603 1904.58 312.41 1908.43 308.511C1912.27 304.612 1914.43 299.326 1914.44 293.812V222.85C1914.43 217.337 1912.27 212.05 1908.43 208.151C1904.58 204.253 1899.37 202.059 1893.94 202.053H1243.91Z" fill="#CCCCCC"/>
<path id="Path 513" d="M1893.94 484.658H1243.91C1237.84 484.651 1232.01 482.199 1227.72 477.842C1223.42 473.484 1221.01 467.576 1221 461.414V390.457C1221.01 384.294 1223.42 378.386 1227.72 374.029C1232.01 369.671 1237.84 367.22 1243.91 367.212H1893.94C1900.01 367.22 1905.83 369.671 1910.13 374.029C1914.43 378.386 1916.84 384.294 1916.85 390.457V461.414C1916.84 467.576 1914.43 473.484 1910.13 477.842C1905.83 482.199 1900.01 484.651 1893.94 484.658ZM1243.91 369.654C1238.48 369.66 1233.27 371.853 1229.42 375.752C1225.58 379.651 1223.42 384.937 1223.41 390.451V461.408C1223.42 466.922 1225.58 472.209 1229.42 476.108C1233.27 480.007 1238.48 482.201 1243.91 482.207H1893.94C1899.37 482.201 1904.58 480.008 1908.43 476.109C1912.27 472.21 1914.43 466.924 1914.44 461.41V390.457C1914.43 384.941 1912.27 379.654 1908.43 375.754C1904.58 371.853 1899.37 369.66 1893.94 369.654H1243.91Z" fill="#CCCCCC"/>
<path id="Path 514" d="M1331.75 131.181C1323.86 131.181 1316.15 128.808 1309.59 124.362C1303.03 119.917 1297.92 113.598 1294.9 106.206C1291.88 98.8133 1291.09 90.6787 1292.63 82.8308C1294.17 74.9829 1297.97 67.7741 1303.55 62.1161C1309.12 56.4581 1316.23 52.6049 1323.97 51.0438C1331.7 49.4828 1339.72 50.284 1347.01 53.3461C1354.29 56.4082 1360.52 61.5937 1364.91 68.2468C1369.29 74.9 1371.63 82.7219 1371.63 90.7236C1371.63 101.454 1367.42 111.744 1359.95 119.331C1352.47 126.918 1342.32 131.181 1331.75 131.181Z" fill="#6C63FF"/>
<path id="Path 515" d="M1835.05 123.755H1409.35C1406.79 123.755 1404.33 122.723 1402.52 120.888C1400.72 119.052 1399.7 116.563 1399.7 113.967C1399.7 111.371 1400.72 108.882 1402.52 107.046C1404.33 105.211 1406.79 104.18 1409.35 104.18H1835.05C1837.61 104.18 1840.07 105.211 1841.88 107.046C1843.69 108.882 1844.7 111.371 1844.7 113.967C1844.7 116.563 1843.69 119.052 1841.88 120.888C1840.07 122.723 1837.61 123.755 1835.05 123.755V123.755Z" fill="#CCCCCC"/>
<path id="Path 516" d="M1696.36 82.159H1409.34C1406.78 82.159 1404.32 81.1278 1402.52 79.2922C1400.71 77.4567 1399.69 74.9673 1399.69 72.3715C1399.69 69.7756 1400.71 67.2862 1402.52 65.4506C1404.32 63.6151 1406.78 62.584 1409.34 62.584H1696.36C1698.92 62.584 1701.37 63.6151 1703.18 65.4506C1704.99 67.2862 1706.01 69.7756 1706.01 72.3715C1706.01 74.9673 1704.99 77.4567 1703.18 79.2922C1701.37 81.1278 1698.92 82.159 1696.36 82.159V82.159Z" fill="#CCCCCC"/>
<path id="Path 517" d="M1331.75 298.786C1323.86 298.786 1316.15 296.413 1309.59 291.967C1303.03 287.522 1297.92 281.203 1294.9 273.811C1291.88 266.418 1291.09 258.284 1292.63 250.436C1294.17 242.588 1297.97 235.379 1303.55 229.721C1309.12 224.063 1316.23 220.21 1323.97 218.649C1331.7 217.088 1339.72 217.889 1347.01 220.951C1354.29 224.013 1360.52 229.198 1364.91 235.852C1369.29 242.505 1371.63 250.327 1371.63 258.328C1371.63 269.058 1367.42 279.349 1359.95 286.936C1352.47 294.523 1342.32 298.786 1331.75 298.786V298.786Z" fill="#E6E6E6"/>
<path id="Path 518" d="M1835.05 291.361H1409.35C1406.79 291.361 1404.33 290.33 1402.52 288.494C1400.72 286.659 1399.7 284.169 1399.7 281.573C1399.7 278.977 1400.72 276.488 1402.52 274.652C1404.33 272.817 1406.79 271.786 1409.35 271.786H1835.05C1837.61 271.786 1840.07 272.817 1841.88 274.652C1843.69 276.488 1844.7 278.977 1844.7 281.573C1844.7 284.169 1843.69 286.659 1841.88 288.494C1840.07 290.33 1837.61 291.361 1835.05 291.361Z" fill="#E6E6E6"/>
<path id="Path 519" d="M1696.36 249.765H1409.34C1406.78 249.765 1404.32 248.734 1402.52 246.898C1400.71 245.063 1399.69 242.573 1399.69 239.978C1399.69 237.382 1400.71 234.892 1402.52 233.057C1404.32 231.221 1406.78 230.19 1409.34 230.19H1696.36C1698.92 230.19 1701.37 231.221 1703.18 233.057C1704.99 234.892 1706.01 237.382 1706.01 239.978C1706.01 242.573 1704.99 245.063 1703.18 246.898C1701.37 248.734 1698.92 249.765 1696.36 249.765V249.765Z" fill="#E6E6E6"/>
<path id="Path 520" d="M1331.75 466.392C1323.86 466.392 1316.15 464.019 1309.59 459.573C1303.03 455.128 1297.92 448.809 1294.9 441.417C1291.88 434.024 1291.09 425.89 1292.63 418.042C1294.17 410.194 1297.97 402.985 1303.55 397.327C1309.12 391.669 1316.23 387.816 1323.97 386.255C1331.7 384.694 1339.72 385.495 1347.01 388.557C1354.29 391.619 1360.52 396.805 1364.91 403.458C1369.29 410.111 1371.63 417.933 1371.63 425.935C1371.63 436.664 1367.42 446.955 1359.95 454.542C1352.47 462.129 1342.32 466.392 1331.75 466.392V466.392Z" fill="#E6E6E6"/>
<path id="Path 521" d="M1835.05 458.967H1409.35C1406.79 458.967 1404.33 457.936 1402.52 456.1C1400.72 454.265 1399.7 451.775 1399.7 449.179C1399.7 446.584 1400.72 444.094 1402.52 442.259C1404.33 440.423 1406.79 439.392 1409.35 439.392H1835.05C1837.61 439.392 1840.07 440.423 1841.88 442.259C1843.69 444.094 1844.7 446.584 1844.7 449.179C1844.7 451.775 1843.69 454.265 1841.88 456.1C1840.07 457.936 1837.61 458.967 1835.05 458.967Z" fill="#E6E6E6"/>
<path id="Path 522" d="M1696.36 417.371H1409.34C1406.78 417.371 1404.32 416.34 1402.52 414.505C1400.71 412.669 1399.69 410.18 1399.69 407.584C1399.69 404.988 1400.71 402.498 1402.52 400.663C1404.32 398.827 1406.78 397.796 1409.34 397.796H1696.36C1698.92 397.796 1701.37 398.827 1703.18 400.663C1704.99 402.498 1706.01 404.988 1706.01 407.584C1706.01 410.18 1704.99 412.669 1703.18 414.505C1701.37 416.34 1698.92 417.371 1696.36 417.371V417.371Z" fill="#E6E6E6"/>
<path id="Path 395" d="M1329.71 104.954C1328.72 104.957 1327.76 104.632 1326.96 104.029L1326.91 103.991L1316.58 95.9703C1316.1 95.5979 1315.7 95.1336 1315.39 94.6038C1315.09 94.0739 1314.9 93.489 1314.82 92.8823C1314.74 92.2756 1314.78 91.659 1314.93 91.0678C1315.09 90.4766 1315.36 89.9224 1315.73 89.4367C1316.09 88.951 1316.55 88.5434 1317.07 88.2371C1317.59 87.9309 1318.17 87.732 1318.77 87.6519C1319.37 87.5717 1319.97 87.6118 1320.56 87.7699C1321.14 87.928 1321.69 88.2011 1322.17 88.5734L1328.86 93.7824L1344.68 72.8431C1345.42 71.863 1346.52 71.2216 1347.72 71.0598C1348.93 70.8981 1350.15 71.2292 1351.12 71.9805V71.9805L1351.02 72.1199L1351.12 71.9805C1352.09 72.7334 1352.72 73.8438 1352.88 75.0682C1353.04 76.2927 1352.71 77.5312 1351.97 78.512L1333.36 103.13C1332.93 103.696 1332.38 104.154 1331.74 104.468C1331.11 104.783 1330.41 104.945 1329.71 104.942L1329.71 104.954Z" fill="white"/>
<path id="Path 523" d="M2246.63 765H1974.64C1974.27 765 1973.92 764.853 1973.66 764.592C1973.41 764.33 1973.26 763.976 1973.26 763.606C1973.26 763.237 1973.41 762.882 1973.66 762.621C1973.92 762.36 1974.27 762.213 1974.64 762.213H2246.63C2246.99 762.213 2247.34 762.36 2247.6 762.621C2247.86 762.882 2248 763.237 2248 763.606C2248 763.976 2247.86 764.33 2247.6 764.592C2247.34 764.853 2246.99 765 2246.63 765Z" fill="#CCCCCC"/>
<g id="undraw_Agreement_re_d4dv 1" clip-path="url(#clip1)">
<path id="Vector_11" d="M3300.52 338.507L2966.18 513.788C2965.01 514.4 2963.62 514.57 2962.31 514.262C2961 513.954 2959.87 513.192 2959.19 512.144L2744.19 182.175C2743.51 181.125 2743.32 179.876 2743.66 178.701C2744 177.525 2744.85 176.52 2746.02 175.906L3080.36 0.625293C3081.53 0.0134209 3082.92 -0.157116 3084.23 0.151096C3085.54 0.459307 3086.66 1.2211 3087.35 2.26935L3302.35 332.238C3303.03 333.288 3303.22 334.537 3302.88 335.713C3302.54 336.888 3301.69 337.893 3300.52 338.507Z" fill="white"/>
<path id="Vector_12" d="M3300.52 338.507L2966.18 513.788C2965.01 514.4 2963.62 514.57 2962.31 514.262C2961 513.954 2959.87 513.192 2959.19 512.144L2744.19 182.175C2743.51 181.125 2743.32 179.876 2743.66 178.701C2744 177.525 2744.85 176.52 2746.02 175.906L3080.36 0.625293C3081.53 0.0134209 3082.92 -0.157116 3084.23 0.151096C3085.54 0.459307 3086.66 1.2211 3087.35 2.26935L3302.35 332.238C3303.03 333.288 3303.22 334.537 3302.88 335.713C3302.54 336.888 3301.69 337.893 3300.52 338.507ZM2747.05 177.489C2746.35 177.857 2745.84 178.46 2745.64 179.165C2745.43 179.87 2745.54 180.62 2745.95 181.25L2960.95 511.219C2961.37 511.848 2962.04 512.305 2962.82 512.49C2963.61 512.675 2964.45 512.572 2965.15 512.205L3299.49 336.924C3300.19 336.556 3300.7 335.953 3300.9 335.248C3301.11 334.543 3301 333.793 3300.59 333.163L3085.58 3.19426C3085.17 2.56528 3084.5 2.10818 3083.72 1.92325C3082.93 1.73832 3082.09 1.84066 3081.39 2.20782L2747.05 177.489Z" fill="#3F3D56"/>
<path id="Vector_13" d="M2961.97 210.349L2879.04 253.822C2877.87 254.434 2876.48 254.605 2875.17 254.296C2873.86 253.988 2872.74 253.226 2872.05 252.178L2823.59 177.797C2822.91 176.747 2822.72 175.497 2823.06 174.322C2823.4 173.147 2824.25 172.142 2825.42 171.528L2908.35 128.054C2909.52 127.443 2910.91 127.272 2912.22 127.58C2913.53 127.888 2914.65 128.65 2915.33 129.698L2963.8 204.08C2964.48 205.13 2964.67 206.379 2964.33 207.554C2963.98 208.73 2963.14 209.735 2961.97 210.349V210.349ZM2826.45 173.11C2825.75 173.479 2825.24 174.082 2825.04 174.787C2824.83 175.492 2824.94 176.242 2825.35 176.872L2873.82 251.253C2874.23 251.882 2874.9 252.339 2875.69 252.524C2876.47 252.709 2877.31 252.607 2878.01 252.24L2960.94 208.766C2961.64 208.398 2962.15 207.795 2962.35 207.09C2962.56 206.384 2962.44 205.635 2962.04 205.005L2913.57 130.623C2913.16 129.994 2912.49 129.537 2911.7 129.352C2910.91 129.167 2910.08 129.27 2909.38 129.637L2826.45 173.11Z" fill="#F2F2F2"/>
<path id="Vector_14" d="M2944.08 231.936L2861.15 275.409C2860.1 275.96 2858.85 276.113 2857.67 275.836C2856.49 275.558 2855.48 274.873 2854.86 273.929L2806.4 199.548C2805.79 198.603 2805.61 197.479 2805.92 196.421C2806.23 195.363 2807 194.459 2808.05 193.906L2890.97 150.433C2892.02 149.882 2893.28 149.728 2894.46 150.006C2895.64 150.283 2896.65 150.969 2897.26 151.912L2945.73 226.294C2946.34 227.238 2946.51 228.363 2946.2 229.421C2945.89 230.478 2945.13 231.383 2944.08 231.936V231.936Z" fill="#6C63FF"/>
<path id="Vector_15" d="M3144.23 175.839L2884.87 311.808C2883.82 312.36 2882.56 312.515 2881.39 312.237C2880.21 311.96 2879.2 311.273 2878.58 310.329C2877.97 309.384 2877.79 308.259 2878.1 307.201C2878.41 306.143 2879.18 305.239 2880.23 304.687L3139.59 168.717C3140.11 168.444 3140.68 168.265 3141.28 168.192C3141.88 168.118 3142.49 168.151 3143.07 168.288C3143.66 168.426 3144.21 168.665 3144.69 168.992C3145.17 169.32 3145.57 169.729 3145.88 170.197C3146.18 170.664 3146.38 171.181 3146.46 171.718C3146.54 172.254 3146.51 172.8 3146.35 173.324C3146.2 173.848 3145.93 174.34 3145.57 174.771C3145.2 175.203 3144.75 175.565 3144.23 175.839V175.839Z" fill="#CCCCCC"/>
<path id="Vector_16" d="M3097.58 233.205L2900.86 336.339C2900.33 336.612 2899.76 336.79 2899.16 336.864C2898.56 336.937 2897.95 336.905 2897.37 336.767C2896.19 336.49 2895.18 335.803 2894.57 334.859C2893.95 333.915 2893.78 332.79 2894.09 331.731C2894.4 330.673 2895.16 329.769 2896.21 329.217L3092.94 226.083C3093.46 225.81 3094.03 225.632 3094.63 225.558C3095.23 225.484 3095.84 225.517 3096.42 225.655C3097.01 225.792 3097.56 226.031 3098.04 226.359C3098.52 226.686 3098.92 227.095 3099.23 227.563C3099.53 228.031 3099.73 228.548 3099.81 229.084C3099.89 229.621 3099.86 230.167 3099.7 230.69C3099.55 231.214 3099.28 231.706 3098.92 232.138C3098.55 232.569 3098.1 232.932 3097.58 233.205V233.205Z" fill="#CCCCCC"/>
<path id="Vector_17" d="M3084.57 86.0938L2969.89 146.216C2968.83 146.768 2967.58 146.923 2966.4 146.645C2965.22 146.368 2964.21 145.681 2963.6 144.737C2962.98 143.792 2962.81 142.667 2963.12 141.609C2963.43 140.551 2964.19 139.647 2965.25 139.095L3079.93 78.9722C3080.98 78.4202 3082.23 78.266 3083.41 78.5435C3084 78.6809 3084.55 78.9201 3085.03 79.2476C3085.51 79.575 3085.91 79.9842 3086.22 80.4518C3086.52 80.9194 3086.72 81.4363 3086.8 81.9729C3086.88 82.5095 3086.85 83.0553 3086.69 83.5792C3086.54 84.1031 3086.27 84.5949 3085.91 85.0263C3085.54 85.4578 3085.09 85.8205 3084.57 86.0938Z" fill="#CCCCCC"/>
<path id="Vector_18" d="M3071.93 125.629L2985.87 170.747C2985.35 171.02 2984.77 171.198 2984.17 171.272C2983.58 171.346 2982.97 171.313 2982.38 171.175C2981.8 171.038 2981.25 170.799 2980.77 170.471C2980.29 170.144 2979.88 169.735 2979.58 169.267C2979.28 168.799 2979.08 168.282 2978.99 167.746C2978.91 167.209 2978.95 166.663 2979.1 166.14C2979.26 165.616 2979.52 165.124 2979.89 164.692C2980.25 164.261 2980.71 163.898 2981.23 163.625L3067.29 118.507C3068.34 117.955 3069.6 117.801 3070.78 118.078C3071.96 118.356 3072.96 119.042 3073.58 119.987C3074.19 120.931 3074.37 122.056 3074.06 123.114C3073.75 124.172 3072.98 125.077 3071.93 125.629Z" fill="#CCCCCC"/>
<path id="Vector_19" d="M3176.19 224.899L2916.84 360.869C2915.79 361.421 2914.53 361.575 2913.35 361.297C2912.17 361.02 2911.16 360.333 2910.55 359.389C2909.93 358.445 2909.76 357.32 2910.07 356.261C2910.38 355.203 2911.15 354.299 2912.2 353.747L3171.55 217.777C3172.61 217.225 3173.86 217.071 3175.04 217.348C3176.22 217.626 3177.23 218.312 3177.84 219.257C3178.46 220.201 3178.63 221.326 3178.32 222.384C3178.01 223.442 3177.25 224.347 3176.19 224.899V224.899Z" fill="#CCCCCC"/>
<path id="Vector_20" d="M3129.54 282.265L2932.82 385.399C2932.3 385.672 2931.72 385.851 2931.13 385.924C2930.53 385.998 2929.92 385.965 2929.34 385.827C2928.75 385.69 2928.2 385.451 2927.72 385.123C2927.24 384.796 2926.84 384.387 2926.53 383.919C2926.23 383.451 2926.03 382.935 2925.95 382.398C2925.86 381.861 2925.9 381.316 2926.05 380.792C2926.21 380.268 2926.47 379.776 2926.84 379.345C2927.2 378.913 2927.66 378.55 2928.18 378.277L3124.9 275.144C3125.42 274.87 3126 274.692 3126.6 274.618C3127.2 274.545 3127.81 274.577 3128.39 274.715C3128.97 274.852 3129.52 275.091 3130 275.419C3130.48 275.746 3130.89 276.156 3131.19 276.623C3131.5 277.091 3131.7 277.608 3131.78 278.144C3131.86 278.681 3131.82 279.227 3131.67 279.751C3131.52 280.275 3131.25 280.766 3130.89 281.198C3130.52 281.629 3130.06 281.992 3129.54 282.265V282.265Z" fill="#CCCCCC"/>
<path id="Vector_21" d="M3208.16 273.959L2948.81 409.929C2948.28 410.202 2947.71 410.381 2947.11 410.454C2946.51 410.528 2945.9 410.495 2945.32 410.357C2944.73 410.22 2944.19 409.981 2943.71 409.653C2943.22 409.326 2942.82 408.917 2942.52 408.449C2942.21 407.981 2942.01 407.465 2941.93 406.928C2941.85 406.391 2941.88 405.846 2942.04 405.322C2942.19 404.798 2942.46 404.306 2942.82 403.875C2943.19 403.443 2943.64 403.08 2944.16 402.807L3203.52 266.837C3204.04 266.564 3204.62 266.385 3205.22 266.312C3205.81 266.238 3206.42 266.271 3207.01 266.409C3207.59 266.546 3208.14 266.785 3208.62 267.113C3209.1 267.44 3209.5 267.849 3209.81 268.317C3210.11 268.785 3210.31 269.301 3210.4 269.838C3210.48 270.375 3210.44 270.92 3210.29 271.444C3210.13 271.968 3209.87 272.46 3209.5 272.891C3209.14 273.323 3208.68 273.686 3208.16 273.959V273.959Z" fill="#CCCCCC"/>
<path id="Vector_22" d="M3224.14 298.489L2964.79 434.459C2964.27 434.732 2963.69 434.911 2963.09 434.984C2962.49 435.058 2961.89 435.025 2961.3 434.887C2960.72 434.75 2960.17 434.511 2959.69 434.183C2959.21 433.856 2958.8 433.447 2958.5 432.979C2958.19 432.512 2957.99 431.995 2957.91 431.458C2957.83 430.921 2957.87 430.376 2958.02 429.852C2958.17 429.328 2958.44 428.836 2958.81 428.405C2959.17 427.973 2959.63 427.61 2960.15 427.337L3219.5 291.367C3220.02 291.094 3220.6 290.916 3221.2 290.842C3221.8 290.768 3222.41 290.801 3222.99 290.939C3223.57 291.076 3224.12 291.315 3224.6 291.643C3225.08 291.97 3225.49 292.379 3225.79 292.847C3226.1 293.315 3226.3 293.832 3226.38 294.368C3226.46 294.905 3226.42 295.451 3226.27 295.974C3226.12 296.498 3225.85 296.99 3225.49 297.422C3225.12 297.853 3224.66 298.216 3224.14 298.489V298.489Z" fill="#CCCCCC"/>
<path id="Vector_23" d="M3178.98 486.969C3179.36 487.316 3179.7 487.689 3180.01 488.084L3228.31 487.024L3233.94 477.789L3250.59 483.595L3242.39 500.813C3241.73 502.204 3240.58 503.364 3239.12 504.12C3237.66 504.877 3235.96 505.187 3234.29 505.006L3179.72 499.093C3178.44 500.555 3176.68 501.63 3174.7 502.177C3172.71 502.723 3170.59 502.714 3168.61 502.151C3166.63 501.589 3164.89 500.499 3163.62 499.027C3162.35 497.554 3161.6 495.77 3161.49 493.91C3161.38 492.05 3161.9 490.203 3162.98 488.615C3164.07 487.027 3165.66 485.773 3167.56 485.019C3169.46 484.266 3171.57 484.049 3173.61 484.397C3175.65 484.746 3177.52 485.643 3178.98 486.969V486.969Z" fill="#FFB7B7"/>
<path id="Vector_24" d="M3336.42 750.06H3320.54L3312.98 695.118L3336.42 695.119L3336.42 750.06Z" fill="#FFB7B7"/>
<path id="Vector_25" d="M3340.47 763.868L3289.26 763.867V763.286C3289.27 758.545 3291.36 753.998 3295.1 750.645C3298.84 747.293 3303.91 745.409 3309.19 745.409H3309.2L3340.47 745.41L3340.47 763.868Z" fill="#2F2E41"/>
<path id="Vector_26" d="M3192.22 749.744L3177.62 744.148L3194.73 690.961L3216.29 699.22L3192.22 749.744Z" fill="#FFB7B7"/>
<path id="Vector_27" d="M3189.9 763.868L3142.81 745.824L3143.07 745.29C3145.15 740.93 3149.07 737.489 3153.97 735.723C3158.88 733.957 3164.36 734.011 3169.23 735.873L3169.23 735.874L3197.99 746.894L3189.9 763.868Z" fill="#2F2E41"/>
<path id="Vector_28" d="M3259.23 498.871L3258.08 515.563L3291.65 518.785L3326.77 522.156L3316.43 496.811L3259.23 498.871Z" fill="#FFB7B7"/>
<path id="Vector_29" d="M3257.03 515.777L3243.99 434.237L3266.59 427.592L3273.23 419.426L3305.53 421.141L3310.27 430.67L3327.5 437.971L3324.85 482.069L3326.78 518.959L3257.03 515.777Z" fill="#CCCCCC"/>
<path id="Vector_30" d="M3248.82 493.926L3225.83 485.676L3225.93 485.309C3226.03 484.939 3235.81 448.262 3237.11 442.368C3238.46 436.228 3243.41 434.53 3243.62 434.461L3243.77 434.41L3252.87 436.894L3256.86 465.056L3248.82 493.926Z" fill="#CCCCCC"/>
<path id="Vector_31" d="M3204.05 740.088L3173.45 734.457L3222.36 613.394L3239.1 572.102C3239.1 572.102 3249.72 538.993 3254.51 526.181L3257.41 508.99L3325.94 515.794C3325.94 515.794 3345.08 541.007 3339.26 582.103L3341.89 736.569L3311.29 737.976L3285.66 582.19L3240.67 667.591C3240.67 667.591 3226.49 704.035 3216.34 711.934L3204.05 740.088Z" fill="#2F2E41"/>
<path id="Vector_32" d="M3298.46 521.527C3298.99 521.516 3299.53 521.542 3300.07 521.607L3332.04 489.119L3328.32 479.134L3344.39 472.13L3352.88 489.233C3353.57 490.614 3353.74 492.158 3353.36 493.633C3352.99 495.108 3352.09 496.434 3350.8 497.412L3308.87 529.283C3309.19 531.123 3308.88 533.007 3307.98 534.684C3307.07 536.361 3305.62 537.752 3303.82 538.672C3302.01 539.591 3299.93 539.996 3297.87 539.831C3295.8 539.667 3293.83 538.942 3292.24 537.752C3290.64 536.563 3289.48 534.965 3288.92 533.171C3288.36 531.378 3288.42 529.474 3289.1 527.712C3289.77 525.951 3291.03 524.416 3292.7 523.311C3294.37 522.206 3296.38 521.584 3298.46 521.527V521.527Z" fill="#FFB7B7"/>
<path id="Vector_33" d="M3329.49 492.281L3316.15 464.142L3321.35 444.542L3326.96 438.191C3327.37 438.033 3327.81 437.954 3328.26 437.958C3328.7 437.962 3329.14 438.048 3329.55 438.213C3331.62 438.959 3333.38 441.246 3334.78 445.01L3347.28 476.943L3329.49 492.281Z" fill="#CCCCCC"/>
<path id="Vector_34" d="M2967.72 738.059L2982.07 742.66L3008.68 695.196L2987.5 688.407L2967.72 738.059Z" fill="#9F616A"/>
<path id="Vector_35" d="M2959.08 749.365L2965.73 732.683L2993.99 741.743C2998.77 743.279 3002.67 746.45 3004.84 750.562C3007.01 754.673 3007.27 759.388 3005.57 763.674L3005.36 764.199L2959.08 749.365Z" fill="#2F2E41"/>
<path id="Vector_36" d="M3061.04 750.792L3076.28 750.791L3083.53 698.063L3061.04 698.064L3061.04 750.792Z" fill="#9F616A"/>
<path id="Vector_37" d="M3057.15 746.329L3087.17 746.328H3087.17C3089.68 746.328 3092.17 746.771 3094.49 747.634C3096.81 748.496 3098.92 749.759 3100.69 751.353C3102.47 752.946 3103.88 754.837 3104.84 756.919C3105.8 759 3106.29 761.231 3106.29 763.484V764.042L3057.15 764.043L3057.15 746.329Z" fill="#2F2E41"/>
<path id="Vector_38" d="M3026.31 413.922L3032.93 402.174C3032.93 402.174 3057.63 407.723 3059.87 420.56L3026.31 413.922Z" fill="#F1F1F1"/>
<path id="Vector_39" d="M2998.96 548.247L3016.98 638.47L2969.12 714.391L2997.72 724.426L3046.2 650.832L3052.41 630.761L3056.14 735.577L3081.93 734.875L3093.75 637.002L3074.79 546.017L2998.96 548.247Z" fill="#2F2E41"/>
<path id="Vector_40" d="M3033.17 569.576C3006.69 569.576 2989.88 565.033 2989.51 564.961L2988.9 564.844L3002.69 507.485L3003.31 454.577C3003.31 432.156 3019.76 415.626 3022.04 414.1C3022.43 412.739 3023.14 411.47 3024.13 410.381C3025.11 409.292 3026.36 408.41 3027.76 407.795C3033.25 405.562 3039.96 408.242 3040.24 408.357L3060.36 415.126L3060.46 415.376C3060.7 416.018 3087.21 494.082 3087.21 494.082C3087.21 494.082 3085.61 562.289 3085.05 564.524C3085.05 564.524 3047.89 569.576 3033.17 569.576Z" fill="#3F3D56"/>
<path id="Vector_41" d="M3053.52 398.475C3068.54 398.475 3080.72 387.551 3080.72 374.075C3080.72 360.598 3068.54 349.674 3053.52 349.674C3038.5 349.674 3026.32 360.598 3026.32 374.075C3026.32 387.551 3038.5 398.475 3053.52 398.475Z" fill="#9F616A"/>
<path id="Vector_42" opacity="0.2" d="M3023.19 458.904L3070.78 518.465L3077.81 490.65L3023.19 458.904Z" fill="black"/>
<path id="Vector_43" d="M3172.4 499.43C3171.06 500.379 3169.5 501.054 3167.84 501.407C3166.18 501.76 3164.46 501.781 3162.79 501.47C3161.11 501.16 3159.54 500.524 3158.17 499.608C3156.8 498.693 3155.68 497.519 3154.87 496.17L3113.91 502.052L3122.78 484.429L3160.32 481.546C3162.94 480.48 3165.9 480.311 3168.64 481.072C3171.39 481.834 3173.73 483.472 3175.21 485.676C3176.7 487.88 3177.24 490.498 3176.72 493.033C3176.2 495.568 3174.66 497.844 3172.4 499.43H3172.4Z" fill="#9F616A"/>
<path id="Vector_44" d="M3124.89 483.426L3139.61 482.131L3143.69 500.548L3125.17 500.842L3124.89 483.426Z" fill="#F1F1F1"/>
<path id="Vector_45" d="M3136.96 506.965L3064.87 501.208L3028.47 449.284L3028.36 448.825C3027.33 444.584 3028.05 440.15 3030.4 436.352C3032.74 432.553 3036.55 429.65 3041.1 428.184C3045.66 426.719 3050.65 426.79 3055.15 428.386C3059.66 429.982 3063.36 432.993 3065.56 436.856L3086.93 474.241L3130.05 480.087L3136.96 506.965Z" fill="#3F3D56"/>
<path id="Vector_46" d="M3030.35 395.26L3052.93 395.987C3054.3 396.031 3058.04 382.708 3058.53 379.944C3058.92 378.145 3060.02 376.533 3061.63 375.41C3063.25 374.287 3065.26 373.73 3067.3 373.842C3068.99 373.985 3073.25 371.153 3077.65 367.799C3086 361.432 3085.57 349.473 3076.39 344.093C3076.14 343.946 3075.9 343.812 3075.66 343.69C3069.87 340.785 3063.1 339.81 3056.47 339.735C3050.46 339.668 3044.28 340.347 3038.98 342.898C3029.49 347.473 3024.44 357.471 3024 367.129C3023.55 376.787 3027 386.231 3030.92 395.236" fill="#2F2E41"/>
<path id="Vector_47" d="M3596.35 765H2717.18C2716.87 765 2716.57 764.888 2716.35 764.689C2716.12 764.491 2716 764.221 2716 763.94C2716 763.658 2716.12 763.389 2716.35 763.19C2716.57 762.991 2716.87 762.879 2717.18 762.879H3596.82C3597.13 762.879 3597.43 762.991 3597.65 763.19C3597.88 763.389 3598 763.658 3598 763.94C3598 764.525 3597 765 3596.35 765Z" fill="#CBCBCB"/>
<g id="Group 1">
<path id="Ellipse 97_2" d="M3293.5 405C3310.34 405 3324 391.569 3324 375C3324 358.431 3310.34 345 3293.5 345C3276.66 345 3263 358.431 3263 375C3263 391.569 3276.66 405 3293.5 405Z" fill="#2F2E41"/>
<path id="Ellipse 98_2" d="M3292 409C3306.36 409 3318 397.136 3318 382.5C3318 367.864 3306.36 356 3292 356C3277.64 356 3266 367.864 3266 382.5C3266 397.136 3277.64 409 3292 409Z" fill="#FEB8B8"/>
<path id="Path 639_2" d="M3265 369.342C3277.5 377.023 3291.6 381.697 3306.19 383L3301.85 377.765C3305.01 378.941 3308.33 379.606 3311.7 379.734C3313.39 379.784 3315.06 379.434 3316.59 378.715C3318.12 377.995 3319.46 376.925 3320.5 375.59C3321.35 374.204 3321.86 372.632 3321.97 371.008C3322.09 369.383 3321.82 367.754 3321.17 366.26C3319.85 363.278 3317.79 360.686 3315.19 358.732C3310.58 355.063 3305.14 352.599 3299.36 351.559C3293.58 350.519 3287.63 350.935 3282.04 352.77C3278.21 353.922 3274.78 356.137 3272.14 359.161C3269.64 362.268 3264.82 365.036 3266.1 368.821L3265 369.342Z" fill="#2F2E41"/>
<path id="Path 640_2" d="M3294 347.316C3299.3 341.905 3305.71 337.729 3312.79 335.082C3317.28 333.18 3322.2 332.565 3327.02 333.304C3331.77 334.266 3336.26 337.572 3337.58 342.263C3338.67 346.097 3337.55 350.227 3335.87 353.839C3334.19 357.451 3331.94 360.797 3330.58 364.542C3329.2 368.363 3328.78 372.472 3329.37 376.497C3329.96 380.521 3331.54 384.334 3333.97 387.588C3336.39 390.842 3339.59 393.435 3343.26 395.13C3346.93 396.826 3350.97 397.572 3355 397.299C3350.33 397.929 3346.03 400.136 3341.47 401.31C3336.91 402.484 3331.53 402.406 3328.14 399.116C3324.56 395.636 3324.49 389.979 3324.66 384.969L3325.43 362.623C3325.56 358.824 3325.68 354.904 3324.31 351.357C3322.95 347.811 3319.72 344.707 3315.94 344.739C3313.08 344.763 3310.55 346.509 3308.25 348.23C3305.96 349.951 3303.53 351.787 3300.68 352.043C3297.83 352.3 3294.58 350.179 3294.79 347.304" fill="#2F2E41"/>
</g>
</g>
<path id="Vector_48" d="M1989.67 503.954C1990.36 503.747 1991.06 503.598 1991.76 503.506L2024.94 443.866L2017.72 430.295L2036.67 414.214L2051.77 436.711C2052.99 438.529 2053.59 440.771 2053.46 443.1C2053.34 445.429 2052.51 447.72 2051.09 449.629L2004.95 511.851C2005.81 514.48 2005.87 517.398 2005.12 520.214C2004.37 523.03 2002.84 525.613 2000.75 527.617C1998.65 529.622 1996.08 530.953 1993.38 531.435C1990.68 531.917 1987.98 531.527 1985.63 530.315C1983.29 529.104 1981.41 527.129 1980.25 524.654C1979.09 522.178 1978.71 519.32 1979.15 516.458C1979.58 513.596 1980.83 510.867 1982.71 508.633C1984.59 506.4 1987.01 504.767 1989.67 503.954V503.954Z" fill="#FFB7B7"/>
<path id="Vector_49" d="M2054.11 503.397L2036 385.427L2067.39 375.814L2076.61 364L2121.49 366.481L2128.07 380.267L2152 390.83L2148.32 454.63L2151.01 508L2054.11 503.397Z" fill="#CCCCCC"/>
<path id="Vector_50" d="M2042.85 470L2011 458.355L2011.14 457.837C2011.27 457.315 2024.83 405.55 2026.63 397.232C2028.5 388.565 2035.35 386.169 2035.65 386.072L2035.86 386L2048.46 389.506L2054 429.253L2042.85 470Z" fill="#CCCCCC"/>
<path id="Vector_51" d="M2153.19 513.64C2153.67 513.245 2154.19 512.896 2154.74 512.596L2154.47 450.741L2141.94 441.304L2150.31 421.485L2173.73 436.143C2175.62 437.327 2177.19 439.074 2178.19 441.121C2179.19 443.169 2179.57 445.406 2179.28 447.497L2169.84 515.649C2171.81 517.647 2173.24 520.144 2173.94 522.809C2174.64 525.475 2174.58 528.181 2173.76 530.568C2172.94 532.956 2171.4 534.912 2169.35 536.175C2167.3 537.439 2164.83 537.95 2162.28 537.642C2159.73 537.334 2157.21 536.22 2155.05 534.449C2152.9 532.679 2151.22 530.334 2150.23 527.729C2149.25 525.123 2149 522.379 2149.53 519.863C2150.06 517.346 2151.33 515.175 2153.19 513.64V513.64Z" fill="#FFB7B7"/>
<path id="Vector_52" d="M2155.42 469L2137 428.597L2144.18 400.454L2151.93 391.335C2152.49 391.109 2153.1 390.995 2153.72 391C2154.34 391.006 2154.95 391.13 2155.51 391.366C2158.36 392.438 2160.8 395.721 2162.74 401.126L2180 446.978L2155.42 469Z" fill="#CCCCCC"/>
<path id="Ellipse 100" d="M2104 346C2126.64 346 2145 327.42 2145 304.5C2145 281.58 2126.64 263 2104 263C2081.36 263 2063 281.58 2063 304.5C2063 327.42 2081.36 346 2104 346Z" fill="#2F2E41"/>
<path id="Ellipse 101" d="M2102 352C2121.33 352 2137 335.435 2137 315C2137 294.565 2121.33 278 2102 278C2082.67 278 2067 294.565 2067 315C2067 335.435 2082.67 352 2102 352Z" fill="#FEB8B8"/>
<path id="Path 644" d="M2066 296.793C2082.67 307.594 2101.46 314.167 2120.92 316L2115.13 308.638C2119.34 310.293 2123.78 311.227 2128.27 311.408C2130.52 311.477 2132.75 310.986 2134.79 309.974C2136.82 308.961 2138.61 307.457 2140 305.58C2141.13 303.631 2141.81 301.421 2141.96 299.136C2142.12 296.851 2141.75 294.561 2140.9 292.459C2139.13 288.266 2136.39 284.621 2132.92 281.873C2126.78 276.714 2119.53 273.249 2111.81 271.786C2104.1 270.323 2096.17 270.908 2088.72 273.489C2083.61 275.109 2079.04 278.224 2075.52 282.477C2072.19 286.845 2065.76 290.738 2067.47 296.061L2066 296.793Z" fill="#2F2E41"/>
<path id="Path 645" d="M2104 266.711C2111.12 259.261 2119.74 253.511 2129.26 249.867C2135.29 247.248 2141.91 246.401 2148.39 247.418C2154.77 248.743 2160.81 253.295 2162.59 259.753C2164.04 265.033 2162.54 270.718 2160.28 275.691C2158.02 280.664 2155.01 285.271 2153.18 290.427C2151.31 295.688 2150.75 301.346 2151.55 306.887C2152.34 312.428 2154.46 317.677 2157.72 322.157C2160.98 326.637 2165.28 330.207 2170.22 332.542C2175.15 334.877 2180.58 335.903 2186 335.528C2179.73 336.395 2173.95 339.434 2167.82 341.05C2161.69 342.667 2154.45 342.559 2149.9 338.03C2145.08 333.239 2144.98 325.449 2145.21 318.551L2146.25 287.785C2146.43 282.555 2146.58 277.157 2144.75 272.274C2142.92 267.391 2138.57 263.118 2133.5 263.163C2129.65 263.196 2126.25 265.6 2123.16 267.969C2120.08 270.338 2116.81 272.866 2112.98 273.219C2109.15 273.572 2104.77 270.652 2105.06 266.694" fill="#2F2E41"/>
</g>
<defs>
<clipPath id="clip0">
<rect width="643" height="447.57" fill="white" transform="translate(113 316)"/>
</clipPath>
<clipPath id="clip1">
<rect width="882" height="765" fill="white" transform="translate(2716)"/>
</clipPath>
</defs>
</svg>
